<svg width="26" height="25" viewBox="0 0 26 25" fill="none" xmlns="http://www.w3.org/2000/svg">
<path d="M13.1541 21.5552H4.16428C3.59196 21.5552 3.12831 21.0985 3.12831 20.5354V4.09903C3.12831 3.53577 3.59204 3.07932 4.16428 3.07932H20.8626C21.4347 3.07932 21.8985 3.53577 21.8985 4.09903V20.5354C21.8985 21.0986 21.4346 21.5552 20.8626 21.5552H16.0795V14.4003H18.5193L18.8846 11.6119H16.0795V9.83172C16.0795 9.02442 16.3072 8.47427 17.4833 8.47427L18.9834 8.47363V5.97968C18.7239 5.9457 17.8335 5.86978 16.7975 5.86978C14.6347 5.86978 13.1541 7.16923 13.1541 9.55557V11.6119H10.708V14.4003H13.1541V21.5552Z" fill="#070707"/>
</svg>
