<svg width="19" height="20" viewBox="0 0 19 20" fill="none" xmlns="http://www.w3.org/2000/svg">
<path fill-rule="evenodd" clip-rule="evenodd" d="M16.9409 13.2667L14.2922 12.9691C13.6561 12.8972 13.0304 13.1128 12.582 13.5541L10.6633 15.4428C7.7122 13.9647 5.29293 11.5936 3.79132 8.67855L5.72047 6.77964C6.16887 6.33827 6.38786 5.72241 6.31486 5.09629L6.01245 2.50966C5.88732 1.47296 5.00095 0.692871 3.93731 0.692871H2.13329C0.954939 0.692871 -0.0252801 1.65772 0.0477149 2.8176C0.600392 11.5834 7.72263 18.5837 16.6176 19.1277C17.7959 19.1995 18.7762 18.2347 18.7762 17.0748V15.2991C18.7866 14.2624 17.9941 13.3899 16.9409 13.2667Z" fill="black"/>
</svg>
