<svg width="15" height="21" viewBox="0 0 15 21" fill="none" xmlns="http://www.w3.org/2000/svg">
<path fill-rule="evenodd" clip-rule="evenodd" d="M0.0673828 8.09744C0.0673828 4.12513 3.33131 0.912384 7.36689 0.912384C11.4025 0.912384 14.6664 4.12513 14.6664 8.09744C14.6664 12.3777 10.0573 18.2797 8.16984 20.5276C7.75272 21.0203 6.99149 21.0203 6.57437 20.5276C4.6765 18.2797 0.0673828 12.3777 0.0673828 8.09744ZM4.75992 8.09744C4.75992 9.51393 5.92784 10.6635 7.36689 10.6635C8.80594 10.6635 9.97386 9.51393 9.97386 8.09744C9.97386 6.68096 8.80594 5.53135 7.36689 5.53135C5.92784 5.53135 4.75992 6.68096 4.75992 8.09744Z" fill="black"/>
</svg>
