<svg width="20" height="20" viewBox="0 0 20 20" fill="none" xmlns="http://www.w3.org/2000/svg">
<path fill-rule="evenodd" clip-rule="evenodd" d="M10.0236 0.97522C7.47475 0.97522 7.15515 0.985854 6.15413 1.03081C5.1552 1.07566 4.47296 1.23184 3.876 1.46022C3.25885 1.69626 2.73547 2.01214 2.21368 2.5257C1.69194 3.0393 1.37103 3.55448 1.13123 4.16196C0.899209 4.74956 0.740543 5.4211 0.694981 6.40437C0.649308 7.38969 0.638504 7.70428 0.638504 10.2132C0.638504 12.722 0.649308 13.0366 0.694981 14.0219C0.740543 15.0052 0.899209 15.6768 1.13123 16.2644C1.37103 16.8718 1.69194 17.387 2.21368 17.9006C2.73547 18.4142 3.25885 18.73 3.876 18.9661C4.47296 19.1945 5.1552 19.3507 6.15413 19.3955C7.15515 19.4405 7.47475 19.4511 10.0236 19.4511C12.5724 19.4511 12.892 19.4405 13.893 19.3955C14.892 19.3507 15.5742 19.1945 16.1712 18.9661C16.7883 18.73 17.3117 18.4142 17.8335 17.9006C18.3552 17.387 18.6761 16.8718 18.916 16.2644C19.148 15.6768 19.3066 15.0052 19.3522 14.0219C19.3979 13.0366 19.4087 12.722 19.4087 10.2132C19.4087 7.70428 19.3979 7.38969 19.3522 6.40437C19.3066 5.4211 19.148 4.74956 18.916 4.16196C18.6761 3.55448 18.3552 3.0393 17.8335 2.5257C17.3117 2.01214 16.7883 1.69626 16.1712 1.46022C15.5742 1.23184 14.892 1.07566 13.893 1.03081C12.892 0.985854 12.5724 0.97522 10.0236 0.97522ZM10.0236 2.63971C12.5295 2.63971 12.8263 2.64913 13.816 2.69358C14.731 2.73465 15.2279 2.88514 15.5586 3.01165C15.9967 3.17923 16.3093 3.37942 16.6377 3.7027C16.9662 4.02595 17.1695 4.33368 17.3398 4.76488C17.4683 5.0904 17.6212 5.57955 17.6629 6.48023C17.7081 7.45434 17.7177 7.74652 17.7177 10.2132C17.7177 12.6798 17.7081 12.972 17.6629 13.9461C17.6212 14.8468 17.4683 15.3359 17.3398 15.6614C17.1695 16.0926 16.9662 16.4004 16.6377 16.7236C16.3093 17.0469 15.9967 17.2471 15.5586 17.4147C15.2279 17.5412 14.731 17.6917 13.816 17.7327C12.8265 17.7772 12.5297 17.7866 10.0236 17.7866C7.51748 17.7866 7.22071 17.7772 6.23121 17.7327C5.31617 17.6917 4.81924 17.5412 4.48853 17.4147C4.05046 17.2471 3.73782 17.0469 3.40943 16.7236C3.08103 16.4004 2.87763 16.0926 2.70737 15.6614C2.57885 15.3359 2.42596 14.8468 2.38423 13.9461C2.33908 12.972 2.32951 12.6798 2.32951 10.2132C2.32951 7.74652 2.33908 7.45434 2.38423 6.48023C2.42596 5.57955 2.57885 5.0904 2.70737 4.76488C2.87763 4.33368 3.081 4.02595 3.40943 3.7027C3.73782 3.37942 4.05046 3.17923 4.48853 3.01165C4.81924 2.88514 5.31617 2.73465 6.23121 2.69358C7.22082 2.64913 7.51767 2.63971 10.0236 2.63971ZM5.20422 10.2132C5.20422 7.59321 7.36191 5.46935 10.0236 5.46935C12.6853 5.46935 14.8429 7.59321 14.8429 10.2132C14.8429 12.8331 12.6853 14.957 10.0236 14.957C7.36191 14.957 5.20422 12.8331 5.20422 10.2132ZM10.0236 13.2925C8.29583 13.2925 6.89522 11.9138 6.89522 10.2132C6.89522 8.51249 8.29583 7.13384 10.0236 7.13384C11.7513 7.13384 13.1519 8.51249 13.1519 10.2132C13.1519 11.9138 11.7513 13.2925 10.0236 13.2925ZM15.0334 6.39047C15.6553 6.39047 16.1596 5.89417 16.1596 5.28193C16.1596 4.66969 15.6553 4.17336 15.0334 4.17336C14.4114 4.17336 13.9072 4.66969 13.9072 5.28193C13.9072 5.89417 14.4114 6.39047 15.0334 6.39047Z" fill="#070707"/>
</svg>
