<svg width="19" height="14" viewBox="0 0 19 14" fill="none" xmlns="http://www.w3.org/2000/svg">
<path fill-rule="evenodd" clip-rule="evenodd" d="M17.8363 0.995425C18.3989 1.5711 18.5825 2.87837 18.5825 2.87837C18.5825 2.87837 18.7702 4.4139 18.7702 5.94884V7.38832C18.7702 8.92385 18.5825 10.4588 18.5825 10.4588C18.5825 10.4588 18.3989 11.7661 17.8363 12.3417C17.1932 13.0227 16.4801 13.0931 16.077 13.1329C16.0327 13.1373 15.9921 13.1413 15.9558 13.1457C13.3292 13.3378 9.38508 13.3437 9.38508 13.3437C9.38508 13.3437 4.50484 13.2986 3.00323 13.1528C2.93208 13.1393 2.84584 13.1289 2.74817 13.117C2.27252 13.0594 1.52596 12.9689 0.933229 12.3417C0.370711 11.7661 0.187702 10.4588 0.187702 10.4588C0.187702 10.4588 0 8.92385 0 7.38832V5.94884C0 4.4139 0.187702 2.87837 0.187702 2.87837C0.187702 2.87837 0.370711 1.5711 0.933229 0.995425C1.57779 0.313458 2.29157 0.243856 2.69468 0.204548C2.73838 0.200286 2.77843 0.196381 2.81435 0.192089C5.441 0 9.38098 0 9.38098 0H9.38919C9.38919 0 13.3292 0 15.9558 0.192089C15.9917 0.196387 16.0318 0.200298 16.0755 0.204567C16.4783 0.243878 17.1924 0.313569 17.8363 0.995425ZM7.44648 3.80206L7.44707 9.13254L12.5179 6.47649L7.44648 3.80206Z" fill="#070707"/>
</svg>
